<svg width="131" height="148" viewBox="0 0 131 148" fill="none" xmlns="http://www.w3.org/2000/svg">
<path d="M116.303 92.036C109.788 70.4599 122.572 66.531 116.303 41.5305C114.601 34.741 111.101 20.4277 97.168 10.2104C85.0175 1.32589 71.2472 0.163561 65.3313 0C59.4192 0.163561 45.6489 1.32589 33.4985 10.2243C19.5651 20.4277 16.0652 34.741 14.3638 41.5445C8.09439 66.5449 20.8741 70.4843 14.3638 92.05C9.27136 108.907 -3.93177 124.365 1.30054 129.314C2.04836 130.036 2.9978 130.566 4.05071 130.849C9.33351 131.973 13.9404 122.963 17.8015 124.999C23.6282 128.079 21.2393 135.16 31.2067 129.001C41.1741 122.841 47.362 130.233 53.208 140.088C55.0619 143.173 58.1755 145.496 61.8975 146.571C63.074 146.908 64.2954 147.102 65.5294 147.149C66.631 147.072 67.7185 146.878 68.769 146.571C72.4785 145.476 75.5846 143.158 77.4584 140.088C83.2851 130.233 89.5001 122.841 99.4559 129.001C109.412 135.16 107.019 128.079 112.865 124.999C116.722 122.963 121.333 131.959 126.616 130.849C127.669 130.565 128.619 130.034 129.366 129.311C134.598 124.351 121.391 108.893 116.303 92.036Z" fill="#101124"/>
<g filter="url(#filter0_d_84_4)">
<path d="M49.1177 58.8193C54.0476 58.8193 58.0441 53.5686 58.0441 47.0916C58.0441 40.6146 54.0476 35.364 49.1177 35.364C44.1878 35.364 40.1913 40.6146 40.1913 47.0916C40.1913 53.5686 44.1878 58.8193 49.1177 58.8193Z" fill="#EEEEEE"/>
<path d="M81.5487 58.8193C86.4786 58.8193 90.4751 53.5686 90.4751 47.0916C90.4751 40.6146 86.4786 35.364 81.5487 35.364C76.6188 35.364 72.6223 40.6146 72.6223 47.0916C72.6223 53.5686 76.6188 58.8193 81.5487 58.8193Z" fill="#EEEEEE"/>
</g>
<defs>
<filter id="filter0_d_84_4" x="36.1913" y="31.364" width="58.2838" height="31.4553" filterUnits="userSpaceOnUse" color-interpolation-filters="sRGB">
<feFlood flood-opacity="0" result="BackgroundImageFix"/>
<feColorMatrix in="SourceAlpha" type="matrix" values="0 0 0 0 0 0 0 0 0 0 0 0 0 0 0 0 0 0 127 0" result="hardAlpha"/>
<feOffset/>
<feGaussianBlur stdDeviation="2"/>
<feComposite in2="hardAlpha" operator="out"/>
<feColorMatrix type="matrix" values="0 0 0 0 0.854902 0 0 0 0 0.894118 0 0 0 0 0.94902 0 0 0 1 0"/>
<feBlend mode="normal" in2="BackgroundImageFix" result="effect1_dropShadow_84_4"/>
<feBlend mode="normal" in="SourceGraphic" in2="effect1_dropShadow_84_4" result="shape"/>
</filter>
</defs>
</svg>
