<svg xmlns="http://www.w3.org/2000/svg" width="87" height="87" fill="none" xmlns:v="https://vecta.io/nano"><path d="M85.359 39.624L47.374 1.641c-2.186-2.188-5.734-2.188-7.923 0l-7.888 7.888 10.006 10.006c2.325-.786 4.992-.259 6.845 1.595 1.862 1.865 2.386 4.555 1.581 6.887l9.643 9.644c2.333-.804 5.025-.284 6.888 1.583 2.604 2.603 2.604 6.822 0 9.428s-6.824 2.605-9.43 0c-1.959-1.961-2.443-4.838-1.451-7.251l-8.993-8.993-.001 23.666a6.74 6.74 0 0 1 1.763 1.261 6.67 6.67 0 0 1 0 9.43c-2.605 2.604-6.826 2.604-9.427 0a6.67 6.67 0 0 1 0-9.43 6.68 6.68 0 0 1 2.182-1.455V32.012c-.818-.334-1.56-.828-2.182-1.455-1.973-1.97-2.448-4.866-1.436-7.288l-9.864-9.865L1.641 39.449c-2.189 2.19-2.189 5.738 0 7.926l37.986 37.984c2.187 2.188 5.734 2.188 7.924 0l37.808-37.808a5.61 5.61 0 0 0 0-7.927" fill="#eee"/></svg>