<svg width="139" height="83" viewBox="0 0 139 83" fill="none" xmlns="http://www.w3.org/2000/svg">
<path d="M139 9.90919V79.1616H3.33791e-06V9.90919C-0.00159994 8.07775 0.574393 6.28317 1.66161 4.73223C2.74884 3.18129 4.30304 1.9371 6.14515 1.14302C7.4347 0.568945 8.8436 0.241837 10.2821 0.182535C10.4786 0.168612 10.676 0.168612 10.8725 0.182535H128.065C128.395 0.161649 128.726 0.161649 129.056 0.182535C130.422 0.285128 131.752 0.630574 132.967 1.1987C134.775 2.0043 136.297 3.24483 137.363 4.78138C138.428 6.31794 138.995 8.08986 139 9.89875V9.90919Z" fill="#DAE4F2"/>
<path d="M139 50.6602V83H0V56.4544C29.1836 64.0687 83.3324 72.3581 139 50.6602Z" fill="#C4D7E9"/>
<path d="M110.426 57.7525C110.912 57.7525 111.386 57.6235 111.79 57.3818C112.194 57.1402 112.508 56.7967 112.694 56.3948C112.88 55.9929 112.929 55.5507 112.834 55.124C112.739 54.6974 112.505 54.3055 112.162 53.9979C111.819 53.6904 111.381 53.4809 110.905 53.396C110.429 53.3112 109.935 53.3547 109.487 53.5212C109.038 53.6876 108.655 53.9695 108.385 54.3312C108.115 54.6929 107.971 55.1181 107.971 55.5531C107.971 55.8421 108.034 56.1283 108.157 56.3953C108.28 56.6624 108.461 56.905 108.689 57.1093C108.917 57.3137 109.188 57.4756 109.486 57.586C109.784 57.6964 110.104 57.7529 110.426 57.7525Z" fill="#C4D7E9"/>
<path d="M97.8407 59.1723C98.6551 59.1723 99.4511 58.956 100.128 58.5507C100.805 58.1453 101.333 57.5692 101.645 56.8952C101.956 56.2211 102.038 55.4794 101.879 54.7639C101.72 54.0483 101.328 53.391 100.752 52.8751C100.176 52.3592 99.4427 52.0079 98.644 51.8656C97.8453 51.7233 97.0174 51.7963 96.265 52.0755C95.5126 52.3547 94.8696 52.8275 94.4171 53.4341C93.9647 54.0408 93.7232 54.7539 93.7232 55.4835C93.7232 56.4619 94.157 57.4001 94.9292 58.0919C95.7014 58.7837 96.7487 59.1723 97.8407 59.1723Z" fill="#C4D7E9"/>
<path d="M106.231 51.0848C106.482 51.0848 106.726 51.0182 106.935 50.8936C107.143 50.7689 107.305 50.5917 107.401 50.3844C107.497 50.1771 107.522 49.949 107.473 49.729C107.424 49.5089 107.304 49.3067 107.127 49.1481C106.949 48.9894 106.724 48.8814 106.478 48.8376C106.232 48.7938 105.978 48.8163 105.746 48.9022C105.515 48.988 105.317 49.1334 105.178 49.32C105.039 49.5066 104.965 49.7259 104.965 49.9503C104.965 50.2512 105.098 50.5397 105.336 50.7525C105.573 50.9653 105.895 51.0848 106.231 51.0848Z" fill="#C4D7E9"/>
<path d="M105.994 63.2822C106.605 63.2822 107.202 63.1199 107.71 62.8157C108.218 62.5116 108.614 62.0793 108.848 61.5736C109.081 61.0678 109.142 60.5114 109.023 59.9746C108.903 59.4379 108.609 58.9449 108.176 58.5581C107.744 58.1713 107.193 57.9081 106.594 57.8018C105.995 57.6954 105.374 57.7507 104.81 57.9606C104.245 58.1706 103.763 58.5257 103.425 58.9811C103.086 59.4365 102.905 59.9718 102.906 60.5191C102.905 60.8824 102.985 61.2422 103.14 61.5779C103.295 61.9135 103.523 62.2185 103.81 62.4752C104.096 62.7319 104.437 62.9354 104.812 63.0739C105.187 63.2124 105.589 63.2832 105.994 63.2822Z" fill="#C4D7E9"/>
<path d="M116.144 55.0589C116.442 55.0596 116.734 54.981 116.983 54.8331C117.231 54.6851 117.425 54.4745 117.539 54.2278C117.654 53.9812 117.684 53.7096 117.627 53.4474C117.569 53.1853 117.426 52.9444 117.215 52.7552C117.004 52.566 116.736 52.437 116.443 52.3847C116.151 52.3323 115.848 52.3588 115.572 52.4609C115.297 52.563 115.061 52.7361 114.895 52.9582C114.729 53.1803 114.641 53.4415 114.641 53.7087C114.641 54.0662 114.799 54.4091 115.081 54.6622C115.363 54.9154 115.745 55.058 116.144 55.0589Z" fill="#C4D7E9"/>
<path d="M118.343 49.9503C119.047 49.9503 119.736 49.7631 120.322 49.4125C120.907 49.0618 121.364 48.5634 121.634 47.9803C121.903 47.3972 121.974 46.7556 121.836 46.1365C121.699 45.5175 121.36 44.9489 120.861 44.5026C120.363 44.0563 119.729 43.7524 119.038 43.6293C118.347 43.5061 117.63 43.5693 116.98 43.8108C116.329 44.0524 115.772 44.4614 115.381 44.9862C114.99 45.511 114.781 46.128 114.781 46.7591C114.781 47.1782 114.873 47.5931 115.052 47.9803C115.231 48.3675 115.493 48.7193 115.824 49.0156C116.155 49.3119 116.547 49.547 116.98 49.7074C117.412 49.8677 117.875 49.9503 118.343 49.9503Z" fill="#C4D7E9"/>
<path d="M40.5028 3.00484H12.3486V0.16864H43.6958C43.6951 0.541568 43.6121 0.910685 43.4514 1.25471C43.2907 1.59874 43.0556 1.91088 42.7597 2.17312C42.1595 2.70649 41.3482 3.00548 40.5028 3.00484Z" fill="white"/>
<path d="M53.1388 3.00485H50.5596C49.7073 3.00572 48.8886 2.7071 48.2794 2.17312C47.9817 1.91169 47.745 1.59986 47.5829 1.25575C47.4209 0.911641 47.3368 0.542117 47.3355 0.16864H56.359C56.3586 0.542235 56.2749 0.91199 56.1128 1.25621C55.9507 1.60042 55.7135 1.91216 55.4151 2.17312C54.8078 2.70753 53.9901 3.0063 53.1388 3.00485Z" fill="white"/>
<path d="M12.4301 6.83284C13.1669 6.83283 13.8872 6.63686 14.4996 6.26975C15.1119 5.90265 15.5889 5.38094 15.87 4.77074C16.151 4.16055 16.2236 3.48933 16.0784 2.84215C15.9332 2.19498 15.5769 1.60098 15.0545 1.13544C14.5321 0.669889 13.8673 0.35375 13.1441 0.227084C12.421 0.100418 11.6722 0.168927 10.9925 0.423929C10.3129 0.67893 9.73309 1.10894 9.32654 1.65948C8.91998 2.21001 8.70501 2.85628 8.70885 3.51639C8.71399 4.39756 9.10831 5.24108 9.80563 5.86254C10.5029 6.484 11.4465 6.83285 12.4301 6.83284Z" fill="white"/>
<path opacity="0.72" d="M14.8035 9.66908C15.0388 9.66908 15.2687 9.60654 15.4643 9.48937C15.6598 9.37221 15.8122 9.20569 15.902 9.01091C15.9919 8.81612 16.0152 8.60183 15.969 8.39516C15.9228 8.1885 15.8092 7.99876 15.6426 7.84997C15.476 7.70119 15.2638 7.60004 15.033 7.55935C14.8022 7.51865 14.5631 7.54024 14.3459 7.62137C14.1288 7.7025 13.9435 7.83954 13.8133 8.01511C13.6832 8.19069 13.6141 8.39692 13.6149 8.60768C13.6122 8.74801 13.6412 8.88738 13.7001 9.01745C13.7589 9.14753 13.8464 9.26564 13.9574 9.36472C14.0683 9.46381 14.2005 9.54183 14.3458 9.59412C14.4912 9.64642 14.6469 9.67191 14.8035 9.66908Z" fill="white"/>
<path opacity="0.42" d="M12.6671 14.2105C13.0235 14.1962 13.3673 14.0884 13.656 13.9006C13.9447 13.7128 14.1655 13.4532 14.2909 13.154C14.4164 12.8548 14.441 12.5291 14.3618 12.2175C14.2825 11.9059 14.1029 11.6219 13.8452 11.4009C13.5875 11.1799 13.263 11.0316 12.912 10.9743C12.561 10.917 12.1989 10.9533 11.8708 11.0787C11.5426 11.2041 11.2628 11.4131 11.066 11.6797C10.8692 11.9462 10.7641 12.2587 10.7637 12.5784C10.7687 12.7976 10.822 13.0137 10.9205 13.2145C11.0189 13.4152 11.1606 13.5966 11.3374 13.7482C11.5142 13.8998 11.7227 14.0187 11.9508 14.098C12.179 14.1773 12.4224 14.2156 12.6671 14.2105Z" fill="white"/>
<path d="M6.56856 7.82813C6.83531 7.82882 7.09629 7.75858 7.31846 7.62631C7.54063 7.49404 7.714 7.30568 7.81661 7.08509C7.91923 6.8645 7.94648 6.62159 7.89491 6.38712C7.84334 6.15264 7.71527 5.93715 7.52692 5.76792C7.33857 5.59869 7.0984 5.48333 6.83683 5.43645C6.57526 5.38958 6.30405 5.41329 6.05753 5.50458C5.811 5.59588 5.60026 5.75065 5.45198 5.94931C5.3037 6.14797 5.22455 6.38158 5.22455 6.62056C5.22455 6.94022 5.36602 7.24685 5.61796 7.47321C5.8699 7.69957 6.21175 7.82721 6.56856 7.82813Z" fill="white"/>
<path d="M10.4491 9.24453C10.5743 9.24453 10.6967 9.21126 10.8008 9.14893C10.905 9.0866 10.9861 8.99801 11.034 8.89436C11.082 8.79071 11.0945 8.67666 11.0701 8.56663C11.0456 8.45659 10.9853 8.35552 10.8968 8.27619C10.8082 8.19686 10.6954 8.14283 10.5726 8.12095C10.4498 8.09906 10.3225 8.11029 10.2068 8.15323C10.0911 8.19616 9.9922 8.26886 9.92262 8.36215C9.85305 8.45543 9.81592 8.5651 9.81592 8.67729C9.81592 8.82773 9.88263 8.97201 10.0014 9.07839C10.1201 9.18477 10.2812 9.24453 10.4491 9.24453Z" fill="white"/>
<path d="M68.8668 57.3279C72.3119 57.3286 75.6798 56.414 78.5447 54.6998C81.4095 52.9856 83.6426 50.5487 84.9615 47.6975C86.2804 44.8462 86.6259 41.7086 85.9543 38.6814C85.2826 35.6542 83.6241 32.8734 81.1883 30.6908C78.7525 28.5081 75.649 27.0216 72.2702 26.4192C68.8914 25.8168 65.3891 26.1256 62.2062 27.3066C59.0233 28.4876 56.3027 30.4876 54.3887 33.0538C52.4746 35.62 51.453 38.6371 51.453 41.7235C51.453 45.8615 53.2875 49.83 56.5532 52.7563C59.8188 55.6826 64.248 57.327 68.8668 57.3279Z" fill="white"/>
</svg>
