<svg xmlns="http://www.w3.org/2000/svg" width="86" height="86" fill="none" xmlns:v="https://vecta.io/nano"><g clip-path="url(#A)"><path d="M42.731.234l2.295 4.311A12.88 12.88 0 0 0 46.76 6.7c1.922 1.922 3.746 3.934 5.386 6.09 3.889 5.106 6.512 10.777 8.385 16.91 1.123 3.746 1.733 7.589 1.779 11.476.188 11.618-3.795 21.594-11.825 29.885-1.311 1.311-2.714 2.526-4.219 3.607-.796 0-1.172-.61-1.5-1.172-.61-1.029-.984-2.204-1.172-3.373-.282-1.405-.468-2.811-.376-4.262v-.656c-.065-.14-.766-64.64-.486-64.97z" fill="#c5d3e9"/><path d="M42.731.091c-.094-.188-.188-.046-.282.046.046.941-.282 1.779-.796 2.58-.564.796-1.311 1.406-2.061 2.061-4.166 3.607-7.444 7.963-10.07 12.836-3.494 6.558-5.294 13.585-5.805 20.984-.234 2.669.844 12.086 1.685 14.803 2.295 7.213 6.418 13.257 11.758 18.504 1.312 1.263 2.714 2.435 4.166 3.561.422 0 .468-.376.564-.656.185-.598.326-1.209.422-1.828l.941-7.025L42.731.091z" fill="#eee"/><path d="M45.026 77.521c.094-1.075.61-1.967 1.172-2.857-.564-.234-.984-.699-1.311-1.218-.282-.468-.516-1.029-.699-1.545-.656-1.967-.795-4.031-.984-6.041v-1.217c-.234.188-.282 1.779-.282 2.016-.137 2.125-.419 4.238-.844 6.324-.14.844-.234 1.685-.753 2.435a.93.93 0 0 0 .046.328c.844 2.483 1.075 5.012 1.217 7.59v.941c0 1.123-.046.887.887 1.263.376.14.795.188 1.172.468.282 0 .328-.234.328-.422l-.14-1.545v-4.311c-.046-.753.094-1.5.188-2.204l.003-.003z" fill="#c2bfbf"/></g><defs><clipPath id="A"><path fill="#fff" d="M0 0h86v86H0z"/></clipPath></defs></svg>