<svg xmlns="http://www.w3.org/2000/svg" width="148" height="89" fill="none" xmlns:v="https://vecta.io/nano"><g clip-path="url(#A)" fill="#eee"><path d="M34.993 23.422h27.855v2.212H37.546V42.28h23.793v2.212H37.546v18.277h25.592v2.212H34.993V23.422zm30.35 0h2.96l13.115 18.277 13.405-18.277L113.055.206 83.1 43.619l15.436 21.362H95.46L81.417 45.54 67.316 64.981h-3.018L79.85 43.619 65.343 23.422zm34.296 2.212v-2.212h31.742v2.212h-14.623v39.347h-2.554V25.633H99.639zM.145 23.421h3.192l44.012 65.796L29.16 64.98 2.815 26.565 2.698 64.98H.145V23.421zm130.979 38.68c.528 0 .913-.404.913-.926s-.385-.926-.913-.926a.9.9 0 0 0-.913.926.9.9 0 0 0 .913.926zm2.509-2.435c0 1.541 1.112 2.547 2.733 2.547 1.726 0 2.769-1.038 2.769-2.839v-6.343h-1.391v6.337c0 1-.503 1.534-1.391 1.534-.795 0-1.335-.497-1.354-1.236h-1.366zm7.322-.081c.099 1.603 1.435 2.628 3.422 2.628 2.124 0 3.453-1.075 3.453-2.789 0-1.348-.758-2.094-2.596-2.522l-.987-.242c-1.168-.273-1.64-.64-1.64-1.28 0-.808.733-1.336 1.832-1.336 1.043 0 1.764.516 1.894 1.342h1.354c-.081-1.51-1.41-2.572-3.229-2.572-1.957 0-3.261 1.062-3.261 2.659 0 1.317.739 2.1 2.36 2.479l1.155.28c1.187.279 1.708.69 1.708 1.373 0 .795-.82 1.373-1.937 1.373-1.199 0-2.031-.541-2.149-1.392h-1.379z"/></g><defs><clipPath id="A"><path fill="#fff" d="M0 0h148v89H0z"/></clipPath></defs></svg>