<svg xmlns="http://www.w3.org/2000/svg" width="87" height="87" fill="none" xmlns:v="https://vecta.io/nano"><path d="M43.5 79.696c-.997 0-1.928-.268-2.798-.732l-8.841-5.249c-1.323-.736-.66-1.004-.261-1.138 1.798-.598 2.132-.729 3.991-1.787.203-.134.468-.073.671.062l6.779 4.06c.268.131.602.131.801 0l26.531-15.359c.268-.13.399-.399.399-.732v-30.66c0-.33-.13-.598-.399-.729L43.841 12.137c-.265-.134-.598-.134-.801 0l-26.539 15.29c-.265.131-.399.468-.399.729v30.657c0 .265.134.602.399.732l7.25 4.194c3.922 1.986 6.387-.344 6.387-2.664V30.82a.81.81 0 0 1 .797-.801h3.393c.392 0 .797.334.797.801v30.258c0 5.253-2.856 8.316-7.844 8.316-1.53 0-2.726 0-6.119-1.668l-6.978-3.984a5.62 5.62 0 0 1-2.795-4.858v-30.66c0-1.994 1.062-3.857 2.795-4.854L40.705 8.011c.861-.46 1.822-.701 2.798-.701s1.938.241 2.799.701l26.524 15.359c1.736.993 2.795 2.86 2.795 4.854v30.66c0 1.99-1.062 3.853-2.795 4.858L46.302 79.098a6.88 6.88 0 0 1-2.802.598h0zm8.178-21.083c-11.636 0-14.029-5.321-14.029-9.838 0-.399.334-.801.797-.801h3.458c.399 0 .729.265.729.667.533 3.52 2.059 5.253 9.113 5.253 5.583 0 7.982-1.269 7.982-4.259 0-1.729-.671-2.991-9.378-3.853-7.246-.725-11.767-2.331-11.767-8.113 0-5.383 4.52-8.577 12.104-8.577 8.508 0 12.698 2.933 13.228 9.309a1.08 1.08 0 0 1-.203.598c-.134.13-.33.265-.529.265h-3.455a.77.77 0 0 1-.732-.595c-.801-3.669-2.86-4.858-8.308-4.858-6.123 0-6.855 2.128-6.855 3.723 0 1.925.859 2.523 9.113 3.589 8.178 1.062 12.035 2.592 12.035 8.316-.073 5.854-4.854 9.175-13.304 9.175h0z" fill="#eee"/></svg>