<svg xmlns="http://www.w3.org/2000/svg" width="87" height="87" fill="#eee" xmlns:v="https://vecta.io/nano"><path d="M34.746 42.384h15.689s8.816.141 8.816-8.519V19.542s1.338-8.667-15.983-8.667c-16.581 0-15.548 7.188-15.548 7.188l.022 7.449h15.816v2.237H21.46s-10.61-1.204-10.61 15.522 9.262 16.131 9.262 16.131h5.525v-7.761s-.301-9.258 9.11-9.258zm-.203-20.807c-.755 0-1.478-.3-2.012-.834s-.833-1.257-.833-2.012.3-1.479.833-2.012a2.85 2.85 0 0 1 4.024 0c.534.533.833 1.258.833 2.012a2.85 2.85 0 0 1-2.845 2.846zm32.346 5.726h-5.524v7.761s.301 9.258-9.11 9.258h-15.69s-8.816-.145-8.816 8.519v14.322s-1.338 8.667 15.983 8.667c16.577 0 15.544-7.188 15.544-7.188l-.022-7.446H43.438v-2.237H65.54s10.61 1.203 10.61-15.522-9.262-16.135-9.262-16.135h0zM52.457 65.134c.755 0 1.479.3 2.012.833a2.85 2.85 0 0 1 .834 2.012c0 .754-.3 1.478-.834 2.012s-1.257.834-2.012.834-1.478-.3-2.012-.834-.834-1.257-.834-2.012.3-1.478.834-2.012 1.257-.833 2.012-.833h0z"/></svg>