<svg xmlns="http://www.w3.org/2000/svg" width="87" height="87" fill="#eee" xmlns:v="https://vecta.io/nano"><path d="M43.5 47.234a6.471 6.471 0 1 0 0-12.941 6.471 6.471 0 1 0 0 12.941zm-18.118 6.394l-1.432-.366C13.315 50.576 7.214 46.009 7.214 40.749s6.104-9.827 16.737-12.514l1.432-.362.402 1.417a70.65 70.65 0 0 0 4.118 10.813l.308.645-.308.645a70.11 70.11 0 0 0-4.118 10.821l-.402 1.414h0zM23.29 31.534c-8.08 2.276-13.043 5.749-13.043 9.215 0 3.458 4.959 6.935 13.043 9.207a76.17 76.17 0 0 1 3.571-9.207c-1.395-2.988-2.588-6.067-3.571-9.215h0zm38.323 22.094l-.399-1.421a71.15 71.15 0 0 0-4.122-10.817l-.308-.642.308-.649a71.01 71.01 0 0 0 4.122-10.817l.399-1.414 1.432.363c10.639 2.686 16.737 7.25 16.737 12.517s-6.101 9.827-16.737 12.514l-1.432.366h0zm-1.486-12.88c1.45 3.139 2.657 6.228 3.578 9.207 8.084-2.273 13.046-5.749 13.046-9.207 0-3.466-4.959-6.935-13.046-9.215a74.98 74.98 0 0 1-3.578 9.215h0z"/><path d="M23.269 31.52l-.399-1.414c-2.994-10.541-2.088-18.092 2.49-20.724 4.477-2.592 11.68.471 19.223 8.211l1.029 1.059-1.029 1.055a71.47 71.47 0 0 0-7.322 8.968l-.41.587-.711.058a71.22 71.22 0 0 0-11.444 1.845l-1.428.355h0zm5.735-20.043c-.812 0-1.53.178-2.135.526-3.001 1.729-3.531 7.75-1.465 15.878a75.7 75.7 0 0 1 9.773-1.512c1.901-2.697 3.976-5.268 6.21-7.696-4.723-4.593-9.182-7.196-12.383-7.196h0zm28.989 61.567c-4.306 0-9.838-3.248-15.58-9.142l-1.026-1.055 1.026-1.051c2.68-2.791 5.13-5.794 7.326-8.979l.406-.58.703-.069c3.86-.298 7.689-.912 11.448-1.838l1.432-.362.402 1.417c2.98 10.534 2.077 18.096-2.494 20.728a7.17 7.17 0 0 1-3.643.932h0zM45.613 62.821c4.72 4.593 9.182 7.199 12.379 7.199.816 0 1.533-.181 2.135-.526 3.005-1.733 3.538-7.765 1.465-15.892-3.226.718-6.489 1.233-9.78 1.519a74.42 74.42 0 0 1-6.199 7.7h0z"/><path d="M63.728 31.52l-1.432-.359a70.6 70.6 0 0 0-11.448-1.845l-.703-.062-.406-.587a70.87 70.87 0 0 0-7.326-8.968l-1.026-1.055 1.026-1.051c7.54-7.736 14.739-10.799 19.223-8.211 4.575 2.635 5.485 10.186 2.494 20.724l-.402 1.414zm-11.915-5.151c3.458.308 6.735.826 9.78 1.512 2.07-8.127 1.541-14.148-1.465-15.881-2.987-1.729-8.609.917-14.514 6.674 2.233 2.429 4.307 4.995 6.199 7.696zM29.004 73.044a7.19 7.19 0 0 1-3.643-.932c-4.578-2.632-5.485-10.19-2.494-20.728l.392-1.417 1.432.362c3.494.881 7.344 1.501 11.448 1.838l.703.069.41.58c2.189 3.183 4.64 6.188 7.322 8.979l1.029 1.051-1.029 1.055c-5.738 5.898-11.27 9.142-15.569 9.142h0zm-3.6-19.437c-2.066 8.127-1.537 14.159 1.465 15.892 2.991 1.704 8.595-.924 14.518-6.677a76.75 76.75 0 0 1-6.21-7.696c-3.287-.291-6.552-.798-9.773-1.519h0z"/><path d="M43.5 55.51a91.95 91.95 0 0 1-7.612-.319l-.711-.062-.41-.587-4.082-6.413-3.52-6.739-.305-.642.305-.649 3.52-6.735 4.082-6.416.41-.58.711-.065c5.064-.424 10.154-.424 15.218 0l.703.069.41.58a91.12 91.12 0 0 1 7.612 13.151l.301.649-.301.642c-2.161 4.591-4.707 8.991-7.612 13.151l-.41.587-.703.062c-2.559.207-5.119.315-7.605.315h0zm-6.648-3.277a87.49 87.49 0 0 0 13.293 0c2.497-3.657 4.717-7.496 6.641-11.484a86.7 86.7 0 0 0-6.641-11.484c-4.424-.341-8.868-.341-13.293 0-2.506 3.651-4.726 7.491-6.641 11.484 1.928 3.986 4.148 7.825 6.641 11.484h0z"/></svg>