<svg xmlns="http://www.w3.org/2000/svg" width="172" height="86" fill="none" fill-rule="evenodd" xmlns:v="https://vecta.io/nano"><path d="M25.801 64.562h4.03V48.596l6.294 13.92c.713 1.673 1.737 2.293 3.72 2.293s2.946-.62 3.683-2.293l6.263-13.92v15.965h4.061V48.596c0-1.55-.62-2.295-1.923-2.698-3.069-.93-5.115-.124-6.045 1.953l-6.169 13.765-5.953-13.765c-.899-2.076-2.977-2.882-6.076-1.953-1.271.403-1.891 1.148-1.891 2.698l-.001 15.965h.007zm31.406-12.989h4.061v8.774c-.03.495.155 1.612 2.363 1.642h8.804V51.51h4.061v14.354c0 3.534-4.377 4.308-6.418 4.34H57.306v-2.696H70.11c2.604-.279 2.294-1.581 2.294-2.015v-1.055h-8.588c-4-.031-6.573-1.798-6.603-3.813v-9.054l-.007.001zm87.115-10.169c-2.479-.062-4.402.186-6.014.869-.464.188-1.209.188-1.27.775.248.247.277.65.495.992.372.62 1.023 1.456 1.612 1.89l1.984 1.427c1.209.743 2.573 1.178 3.75 1.922.683.434 1.364.992 2.047 1.458.347.248.558.652.992.806v-.094c-.217-.278-.279-.681-.495-.992l-.931-.898c-.899-1.209-2.016-2.264-3.225-3.131-.992-.682-3.161-1.612-3.564-2.758l-.061-.062c.681-.063 1.487-.311 2.138-.497 1.055-.278 2.016-.217 3.099-.495l1.49-.434v-.278c-.558-.558-.961-1.302-1.55-1.829-1.581-1.364-3.318-2.697-5.116-3.813-.961-.62-2.201-1.023-3.224-1.549-.373-.186-.992-.279-1.209-.589-.56-.681-.869-1.581-1.272-2.387l-2.541-5.394c-.558-1.209-.9-2.418-1.581-3.534-3.194-5.27-6.667-8.463-11.999-11.595-1.146-.651-2.51-.931-3.96-1.272l-2.325-.125c-.497-.217-.993-.806-1.427-1.085-1.767-1.116-6.324-3.534-7.627-.34-.837 2.015 1.24 3.999 1.945 5.022.529.713 1.21 1.519 1.583 2.325.208.527.278 1.085.495 1.643.495 1.364.961 2.884 1.612 4.155.348.651.712 1.334 1.147 1.923.248.34.682.496.774 1.054-.434.62-.464 1.55-.712 2.326-1.116 3.503-.682 7.843.899 10.416.496.775 1.667 2.481 3.256 1.829 1.395-.558 1.084-2.325 1.487-3.875.093-.372.031-.62.216-.868v.063l1.272 2.573c.961 1.519 2.635 3.1 4.03 4.155.743.558 1.333 1.52 2.262 1.86v-.094h-.061c-.186-.278-.465-.403-.713-.62-.558-.558-1.178-1.24-1.612-1.86-1.302-1.736-2.448-3.658-3.472-5.642-.497-.961-.931-2.015-1.333-2.976-.187-.372-.187-.931-.496-1.116-.466.681-1.147 1.272-1.489 2.108-.59 1.333-.651 2.976-.868 4.681-.125.031-.069 0-.125.063-.99-.247-1.332-1.272-1.704-2.139-.93-2.201-1.085-5.735-.279-8.278.216-.651 1.147-2.697.776-3.317-.188-.589-.806-.93-1.148-1.395-.403-.589-.836-1.333-1.115-1.984-.744-1.737-1.116-3.658-1.922-5.395-.373-.806-1.024-1.643-1.551-2.387-.589-.837-1.239-1.427-1.705-2.418-.155-.34-.371-.899-.123-1.272.061-.248.186-.34.433-.403.403-.34 1.55.093 1.953.278 1.147.466 2.108.899 3.069 1.55.434.31.9.899 1.458 1.055h.651c.993.217 2.108.063 3.037.34 1.643.528 3.131 1.302 4.465 2.14 4.061 2.573 7.41 6.231 9.672 10.603.372.713.527 1.364.869 2.108.651 1.52 1.457 3.069 2.107 4.558.652 1.457 1.272 2.946 2.201 4.155.466.651 2.325.992 3.162 1.333.62.278 1.581.528 2.14.869 1.053.651 2.107 1.395 3.099 2.108.495.371 2.046 1.147 2.139 1.765l.003-.003zm-31.615-26.94c-.428-.004-.855.048-1.27.155v.063h.061c.248.496.682.837.992 1.272l.714 1.488.061-.062c.434-.31.652-.806.652-1.549-.187-.217-.217-.434-.372-.651-.186-.31-.589-.465-.838-.713v-.001z" fill="#eee"/><path d="M79.59 64.561h11.657c1.364 0 2.667-.278 3.72-.775 1.767-.806 2.604-1.89 2.604-3.317v-2.976c0-1.146-.961-2.233-2.882-2.976-.992-.372-2.233-.589-3.442-.589h-4.899c-1.643 0-2.418-.497-2.636-1.581-.031-.124-.031-.248-.031-.372v-1.83c0-.094 0-.217.031-.34.217-.837.651-1.055 2.085-1.209h11.935v-2.698H86.386c-1.643 0-2.511.094-3.287.342-2.387.743-3.442 1.922-3.442 3.998v2.358c0 1.827 2.046 3.379 5.518 3.751.372.031.775.031 1.178.031h4.186c.155 0 .309 0 .433.031 1.272.124 1.829.34 2.201.805a.94.94 0 0 1 .311.745v2.355c0 .278-.186.652-.558.961s-.962.527-1.737.558c-.155 0-.247.031-.403.031H79.59v2.696zm43.215-4.68c0 2.758 2.085 4.308 6.233 4.619l1.178.061h10.541v-2.696h-10.633c-2.358 0-3.257-.589-3.257-2.015V45.899h-4.069v13.982l.007-.001zm-22.662.123v-9.61c0-2.449 1.736-3.938 5.116-4.403l1.084-.062h7.688c.403 0 .745.031 1.148.063 3.379.464 5.083 1.953 5.083 4.403v9.61c0 1.984-.712 3.038-2.387 3.752l3.967 3.595h-4.68l-3.224-2.913-3.256.186h-4.34a9.49 9.49 0 0 1-2.356-.309c-2.571-.714-3.843-2.078-3.843-4.311zm4.371-.215c0 .124.069.247.094.403.216 1.115 1.27 1.736 2.882 1.736h3.659l-3.348-3.038h4.68l2.945 2.667c.56-.311.9-.745 1.024-1.303.031-.124.031-.278.031-.403v-9.208c0-.124 0-.247-.031-.372-.217-1.053-1.27-1.642-2.852-1.642h-6.108c-1.798 0-2.976.775-2.976 2.014v9.147z" fill="#c5d3e9"/></svg>