<svg xmlns="http://www.w3.org/2000/svg" width="87" height="87" fill="none" xmlns:v="https://vecta.io/nano"><path d="M67.063 34.474c-2.719-.936-5.118-2.62-6.924-4.857-1.99-2.493-4.524-4.498-7.408-5.862S46.69 21.705 43.5 21.75a17.11 17.11 0 0 0-18.125 14.5 11.71 11.71 0 0 1 12.688-5.401 15.66 15.66 0 0 1 6.924 4.894c2.001 2.473 4.54 4.458 7.423 5.802s6.035 2.013 9.216 1.956A17.11 17.11 0 0 0 79.75 29a11.6 11.6 0 0 1-12.687 5.474zM19.938 52.526c2.719.936 5.118 2.62 6.924 4.858 1.99 2.493 4.524 4.498 7.408 5.861s6.041 2.049 9.231 2.005a17.11 17.11 0 0 0 18.125-14.5 11.71 11.71 0 0 1-12.687 5.401 15.66 15.66 0 0 1-6.924-4.894c-2.006-2.467-4.546-4.447-7.428-5.791s-6.031-2.016-9.211-1.967A17.11 17.11 0 0 0 7.25 58a11.6 11.6 0 0 1 12.688-5.474z" fill="#eee"/></svg>